<?xml version="1.0" standalone="no"?>
<!DOCTYPE svg PUBLIC "-//W3C//DTD SVG 20010904//EN"
 "http://www.w3.org/TR/2001/REC-SVG-20010904/DTD/svg10.dtd">
<svg version="1.0" xmlns="http://www.w3.org/2000/svg"
 width="3000.000000pt" height="3096.000000pt" viewBox="0 0 3000.000000 3096.000000"
 preserveAspectRatio="xMidYMid meet">

<g transform="translate(0.000000,3096.000000) scale(0.100000,-0.100000)"
fill="#000000" stroke="none">
<path d="M0 15480 l0 -15480 15000 0 15000 0 0 15480 0 15480 -15000 0 -15000
0 0 -15480z m19775 5960 c598 -31 1068 -134 1440 -315 173 -84 271 -151 381
-260 191 -190 276 -403 277 -695 0 -148 -10 -236 -49 -410 -25 -113 -152 -515
-160 -507 -3 2 11 69 31 148 98 405 111 731 38 964 -76 241 -231 412 -482 531
-411 196 -1165 252 -2001 148 -1877 -232 -4348 -1264 -6525 -2725 -137 -92
-320 -218 -405 -279 -85 -61 -225 -158 -311 -215 -354 -234 -622 -446 -948
-753 -253 -239 -798 -812 -1037 -1092 -220 -257 -462 -598 -596 -840 -36 -63
-116 -194 -180 -290 -115 -174 -338 -528 -338 -535 0 -2 -13 -24 -29 -47 -16
-24 -27 -46 -25 -50 3 -5 1 -8 -4 -8 -5 0 -14 -12 -21 -27 -11 -27 -11 -27 14
4 14 18 25 36 25 40 -1 4 9 11 22 16 18 7 20 10 8 17 -12 8 -12 10 -1 10 8 0
20 8 28 18 8 9 11 11 7 3 -5 -10 -3 -12 5 -7 7 5 10 15 7 23 -3 8 -2 12 3 9 5
-4 24 13 43 35 18 23 46 54 62 68 16 14 75 77 132 138 57 62 104 109 104 105
0 -4 5 0 10 8 13 21 13 5 -5 -240 -84 -1136 -224 -1780 -435 -1990 -100 -100
-242 -152 -414 -151 -291 1 -541 157 -666 416 -74 152 -133 429 -160 743 -16
177 -8 550 15 717 46 341 129 655 268 1010 31 80 36 107 47 245 17 235 77 932
105 1230 184 1934 402 3174 671 3818 149 357 394 613 685 714 90 31 100 33
244 33 129 0 160 -3 224 -23 233 -73 465 -253 638 -494 94 -129 430 -712 828
-1433 103 -187 189 -342 191 -344 1 -2 108 55 236 127 605 337 1247 651 1928
942 2318 993 4561 1529 6075 1450z m-1226 -1201 c183 -22 404 -95 576 -190
300 -166 606 -475 834 -841 617 -989 1006 -2659 1136 -4878 36 -623 48 -1193
42 -1935 -6 -640 -12 -846 -42 -1420 -30 -559 -82 -1175 -141 -1635 -72 -573
-188 -1139 -329 -1605 -275 -910 -617 -1376 -1010 -1375 -148 1 -288 61 -457
196 -54 43 -212 221 -337 379 -9 11 20 -14 64 -55 399 -375 649 -485 869 -382
372 174 662 1066 771 2372 34 417 40 592 40 1275 0 606 -9 985 -30 1260 -3 33
-10 134 -15 225 -96 1502 -366 3206 -717 4520 -245 919 -510 1600 -821 2104
-324 525 -582 694 -862 565 -204 -94 -385 -275 -886 -894 -828 -1022 -1257
-1713 -1720 -2772 -47 -109 -205 -481 -349 -828 -414 -993 -427 -1022 -556
-1204 -66 -94 -194 -229 -279 -293 -77 -59 -200 -120 -290 -144 -87 -23 -252
-23 -340 0 -195 53 -420 200 -549 361 -172 216 -486 746 -918 1555 -415 776
-1091 2097 -1059 2071 14 -12 16 -12 10 4 -6 14 -4 16 7 10 12 -8 12 -6 0 8
-12 15 -11 17 2 17 9 0 47 35 86 78 39 42 109 117 156 166 47 49 85 90 85 91
0 1 19 22 43 46 23 25 145 155 271 289 127 135 246 261 266 281 20 20 34 41
33 46 -2 6 6 10 18 9 24 -1 20 4 199 -336 62 -118 139 -264 170 -325 32 -60
228 -436 435 -835 561 -1080 829 -1590 836 -1590 3 0 68 163 144 363 194 510
287 728 461 1077 635 1280 1410 2433 2133 3173 372 380 696 631 1036 803 356
179 637 234 984 193z"/>
<path d="M9766 19074 c-80 -419 -165 -999 -216 -1469 -6 -55 -13 -118 -16
-139 l-6 -40 108 101 c188 175 599 519 722 605 l23 16 -34 68 c-96 191 -540
1003 -548 1004 -3 0 -18 -66 -33 -146z"/>
</g>
</svg>
